# xmcd
#
# Track frame offsets: 
#        150
#        14962
#        27673
#        50438
#        68907
#        86229
#        98382
#        112753
#        130428
#        147473
#        157575
#        169335
#
# Disc length: 2554 seconds
#
# Revision: 0
# Processed by: cddbd v1.5.2PL0 Copyright (c) Steve Scherf et al.
# Submitted via: ExactAudioCopy v0.99pb4
#
DISCID=a309f80c
DTITLE=David Jacobs-Strain - Terraplane Angel
DYEAR=2010
DGENRE=Blues
TTITLE0=Hurricane Railroad
TTITLE1=Terraplane Angel
TTITLE2=Treetop Flyer
TTITLE3=West County Rain
TTITLE4=Dark Side
TTITLE5=Trestle Creek Breakdown
TTITLE6=Pescadero Beach
TTITLE7=The River Song
TTITLE8=How Long?
TTITLE9=Neon Star
TTITLE10=Dirt and Wildflowers
TTITLE11=Halfway To The Coast
EXTD=
EXTT0=
EXTT1=
EXTT2=
EXTT3=
EXTT4=
EXTT5=
EXTT6=
EXTT7=
EXTT8=
EXTT9=
EXTT10=
EXTT11=
PLAYORDER=
